<svg width="14" height="15" viewBox="0 0 14 15" fill="none" xmlns="http://www.w3.org/2000/svg">
<path opacity="0.6" fill-rule="evenodd" clip-rule="evenodd" d="M13.5369 5.84995L12.4531 6.48095C12.5139 6.81225 12.5538 7.15075 12.5538 7.50014C12.5538 7.84937 12.5139 8.18787 12.4531 8.51919L13.5369 9.15014C13.9796 9.40786 14.1312 9.97864 13.8757 10.4251L12.9501 12.0417C12.6945 12.488 12.1284 12.641 11.6857 12.3833L10.5907 11.7459C10.0792 12.185 9.49763 12.5439 8.85126 12.7747V13.5667C8.85126 14.0821 8.43686 14.5001 7.92558 14.5001H6.07433C5.56321 14.5001 5.14881 14.0821 5.14881 13.5667V12.7747C4.50244 12.5439 3.92091 12.185 3.40929 11.7459L2.3144 12.3833C1.87163 12.641 1.30553 12.488 1.04993 12.0417L0.124333 10.4251C-0.131251 9.97864 0.0204445 9.40786 0.463133 9.15014L1.54694 8.51919C1.48619 8.18787 1.4463 7.84937 1.4463 7.50014C1.4463 7.15075 1.48619 6.81225 1.54694 6.48095L0.463133 5.84995C0.0204445 5.59226 -0.131251 5.02135 0.124333 4.57507L1.04993 2.95845C1.30553 2.51199 1.87163 2.35897 2.3144 2.6168L3.40929 3.25424C3.92091 2.81502 4.50244 2.45621 5.14881 2.2255V1.43344C5.14881 0.918018 5.56321 0.500122 6.07433 0.500122H7.92558C8.43686 0.500122 8.85126 0.918018 8.85126 1.43344V2.2255C9.49763 2.45621 10.0792 2.81502 10.5907 3.25424L11.6857 2.6168C12.1284 2.35897 12.6945 2.51199 12.9501 2.95845L13.8757 4.57507C14.1312 5.02135 13.9796 5.59226 13.5369 5.84995ZM12.8427 4.63749L12.3799 3.82917C12.252 3.60609 11.969 3.52947 11.7477 3.6584L10.4618 4.40704C9.80905 3.66465 8.92702 3.13212 7.92558 2.92713V1.90007C7.92558 1.64233 7.71838 1.43344 7.4628 1.43344H6.5372C6.28152 1.43344 6.07433 1.64233 6.07433 1.90007V2.92713C5.07297 3.13212 4.19094 3.66465 3.5383 4.40704L2.2524 3.6584C2.031 3.52947 1.74796 3.60609 1.62012 3.82917L1.1574 4.63749C1.02956 4.86071 1.10542 5.14623 1.32672 5.27502L2.6178 6.02662C2.46401 6.49081 2.37188 6.98359 2.37188 7.50014C2.37188 8.01655 2.46401 8.50927 2.6178 8.97357L1.32672 9.7251C1.10542 9.85405 1.02956 10.1394 1.1574 10.3626L1.62012 11.1708C1.74796 11.394 2.031 11.4705 2.2524 11.3416L3.53822 10.5931C4.19094 11.3355 5.07297 11.868 6.07433 12.073V13.1001C6.07433 13.3578 6.28152 13.5667 6.5372 13.5667H7.4628C7.71838 13.5667 7.92558 13.3578 7.92558 13.1001V12.073C8.92702 11.868 9.80905 11.3355 10.4618 10.5931L11.7477 11.3416C11.969 11.4705 12.252 11.394 12.3799 11.1708L12.8427 10.3626C12.9705 10.1394 12.8946 9.85405 12.6733 9.7251L11.3822 8.97357C11.5361 8.50927 11.6281 8.01655 11.6281 7.50014C11.6281 6.98359 11.5361 6.49081 11.3822 6.02662L12.6733 5.27502C12.8946 5.14623 12.9705 4.86071 12.8427 4.63749ZM7 9.83331C5.72193 9.83331 4.68595 8.7887 4.68595 7.50014C4.68595 6.2113 5.72193 5.16669 7 5.16669C8.27798 5.16669 9.31404 6.2113 9.31404 7.50014C9.31404 8.7887 8.27798 9.83331 7 9.83331ZM7 6.10006C6.23321 6.10006 5.61161 6.72686 5.61161 7.50014C5.61161 8.27323 6.23321 8.89994 7 8.89994C7.76678 8.89994 8.38838 8.27323 8.38838 7.50014C8.38838 6.72686 7.76678 6.10006 7 6.10006Z" fill="white"/>
</svg>
